<mxfile host="app.diagrams.net" agent="Mozilla/5.0 (Windows NT 10.0; Win64; x64) AppleWebKit/537.36 (KHTML, like Gecko) Chrome/135.0.0.0 Safari/537.36" version="26.2.3">
  <diagram name="Page-1" id="vK6EdAKfeL86M8nbuQIk">
    <mxGraphModel dx="1115" dy="918" grid="1" gridSize="10" guides="1" tooltips="1" connect="1" arrows="1" fold="1" page="1" pageScale="1" pageWidth="827" pageHeight="1169" math="0" shadow="0">
      <root>
        <mxCell id="0" />
        <mxCell id="1" parent="0" />
        <mxCell id="EESltQTYkssKowQskmax-5" style="edgeStyle=orthogonalEdgeStyle;rounded=0;orthogonalLoop=1;jettySize=auto;html=1;entryX=0.5;entryY=0;entryDx=0;entryDy=0;" edge="1" parent="1" source="EESltQTYkssKowQskmax-1" target="EESltQTYkssKowQskmax-4">
          <mxGeometry relative="1" as="geometry" />
        </mxCell>
        <mxCell id="EESltQTYkssKowQskmax-6" value="Закупить лекарство" style="edgeLabel;html=1;align=center;verticalAlign=middle;resizable=0;points=[];" vertex="1" connectable="0" parent="EESltQTYkssKowQskmax-5">
          <mxGeometry x="-0.5" y="4" relative="1" as="geometry">
            <mxPoint x="-8" y="10" as="offset" />
          </mxGeometry>
        </mxCell>
        <mxCell id="EESltQTYkssKowQskmax-1" value="" style="ellipse;whiteSpace=wrap;html=1;aspect=fixed;fillColor=#000000;" vertex="1" parent="1">
          <mxGeometry x="374" y="110" width="40" height="40" as="geometry" />
        </mxCell>
        <mxCell id="EESltQTYkssKowQskmax-11" style="edgeStyle=orthogonalEdgeStyle;rounded=0;orthogonalLoop=1;jettySize=auto;html=1;" edge="1" parent="1" source="EESltQTYkssKowQskmax-4" target="EESltQTYkssKowQskmax-10">
          <mxGeometry relative="1" as="geometry" />
        </mxCell>
        <mxCell id="EESltQTYkssKowQskmax-4" value="Получено" style="ellipse;whiteSpace=wrap;html=1;" vertex="1" parent="1">
          <mxGeometry x="334" y="200" width="120" height="60" as="geometry" />
        </mxCell>
        <mxCell id="EESltQTYkssKowQskmax-14" style="edgeStyle=orthogonalEdgeStyle;rounded=0;orthogonalLoop=1;jettySize=auto;html=1;" edge="1" parent="1" source="EESltQTYkssKowQskmax-10" target="EESltQTYkssKowQskmax-12">
          <mxGeometry relative="1" as="geometry">
            <Array as="points">
              <mxPoint x="290" y="330" />
            </Array>
          </mxGeometry>
        </mxCell>
        <mxCell id="EESltQTYkssKowQskmax-16" value="Нет" style="edgeLabel;html=1;align=center;verticalAlign=middle;resizable=0;points=[];" vertex="1" connectable="0" parent="EESltQTYkssKowQskmax-14">
          <mxGeometry x="-0.3333" y="3" relative="1" as="geometry">
            <mxPoint as="offset" />
          </mxGeometry>
        </mxCell>
        <mxCell id="EESltQTYkssKowQskmax-15" style="edgeStyle=orthogonalEdgeStyle;rounded=0;orthogonalLoop=1;jettySize=auto;html=1;entryX=0.5;entryY=0;entryDx=0;entryDy=0;" edge="1" parent="1" source="EESltQTYkssKowQskmax-10" target="EESltQTYkssKowQskmax-13">
          <mxGeometry relative="1" as="geometry" />
        </mxCell>
        <mxCell id="EESltQTYkssKowQskmax-17" value="Да" style="edgeLabel;html=1;align=center;verticalAlign=middle;resizable=0;points=[];" vertex="1" connectable="0" parent="EESltQTYkssKowQskmax-15">
          <mxGeometry x="-0.6786" y="-1" relative="1" as="geometry">
            <mxPoint as="offset" />
          </mxGeometry>
        </mxCell>
        <mxCell id="EESltQTYkssKowQskmax-10" value="В аптеке есть место?" style="rhombus;whiteSpace=wrap;html=1;" vertex="1" parent="1">
          <mxGeometry x="336" y="290" width="116" height="80" as="geometry" />
        </mxCell>
        <mxCell id="EESltQTYkssKowQskmax-19" style="edgeStyle=orthogonalEdgeStyle;rounded=0;orthogonalLoop=1;jettySize=auto;html=1;entryX=0;entryY=0.5;entryDx=0;entryDy=0;" edge="1" parent="1" source="EESltQTYkssKowQskmax-12" target="EESltQTYkssKowQskmax-18">
          <mxGeometry relative="1" as="geometry">
            <Array as="points">
              <mxPoint x="290" y="500" />
            </Array>
          </mxGeometry>
        </mxCell>
        <mxCell id="EESltQTYkssKowQskmax-12" value="Отправлено на склад" style="ellipse;whiteSpace=wrap;html=1;" vertex="1" parent="1">
          <mxGeometry x="230" y="380" width="120" height="60" as="geometry" />
        </mxCell>
        <mxCell id="EESltQTYkssKowQskmax-20" style="edgeStyle=orthogonalEdgeStyle;rounded=0;orthogonalLoop=1;jettySize=auto;html=1;" edge="1" parent="1" source="EESltQTYkssKowQskmax-13" target="EESltQTYkssKowQskmax-18">
          <mxGeometry relative="1" as="geometry">
            <Array as="points">
              <mxPoint x="514" y="500" />
            </Array>
          </mxGeometry>
        </mxCell>
        <mxCell id="EESltQTYkssKowQskmax-13" value="Отправлено в магазин" style="ellipse;whiteSpace=wrap;html=1;" vertex="1" parent="1">
          <mxGeometry x="454" y="380" width="120" height="60" as="geometry" />
        </mxCell>
        <mxCell id="EESltQTYkssKowQskmax-22" style="edgeStyle=orthogonalEdgeStyle;rounded=0;orthogonalLoop=1;jettySize=auto;html=1;" edge="1" parent="1" source="EESltQTYkssKowQskmax-18" target="EESltQTYkssKowQskmax-21">
          <mxGeometry relative="1" as="geometry" />
        </mxCell>
        <mxCell id="EESltQTYkssKowQskmax-18" value="" style="rhombus;whiteSpace=wrap;html=1;" vertex="1" parent="1">
          <mxGeometry x="354" y="460" width="80" height="80" as="geometry" />
        </mxCell>
        <mxCell id="EESltQTYkssKowQskmax-25" value="" style="edgeStyle=orthogonalEdgeStyle;rounded=0;orthogonalLoop=1;jettySize=auto;html=1;" edge="1" parent="1" source="EESltQTYkssKowQskmax-21" target="EESltQTYkssKowQskmax-24">
          <mxGeometry relative="1" as="geometry" />
        </mxCell>
        <mxCell id="EESltQTYkssKowQskmax-21" value="Добавлено в базу данных" style="ellipse;whiteSpace=wrap;html=1;" vertex="1" parent="1">
          <mxGeometry x="334" y="570" width="120" height="50" as="geometry" />
        </mxCell>
        <mxCell id="EESltQTYkssKowQskmax-24" value="Выбрано для заказа" style="ellipse;whiteSpace=wrap;html=1;" vertex="1" parent="1">
          <mxGeometry x="334" y="650" width="120" height="50" as="geometry" />
        </mxCell>
        <mxCell id="EESltQTYkssKowQskmax-34" style="edgeStyle=orthogonalEdgeStyle;rounded=0;orthogonalLoop=1;jettySize=auto;html=1;exitX=0.657;exitY=0.184;exitDx=0;exitDy=0;exitPerimeter=0;" edge="1" parent="1" source="EESltQTYkssKowQskmax-28" target="EESltQTYkssKowQskmax-32">
          <mxGeometry relative="1" as="geometry">
            <Array as="points">
              <mxPoint x="370" y="732" />
              <mxPoint x="370" y="750" />
              <mxPoint x="290" y="750" />
            </Array>
          </mxGeometry>
        </mxCell>
        <mxCell id="EESltQTYkssKowQskmax-35" style="edgeStyle=orthogonalEdgeStyle;rounded=0;orthogonalLoop=1;jettySize=auto;html=1;exitX=0.086;exitY=0.805;exitDx=0;exitDy=0;exitPerimeter=0;" edge="1" parent="1" source="EESltQTYkssKowQskmax-28" target="EESltQTYkssKowQskmax-33">
          <mxGeometry relative="1" as="geometry">
            <Array as="points">
              <mxPoint x="418" y="736" />
              <mxPoint x="418" y="750" />
              <mxPoint x="512" y="750" />
            </Array>
          </mxGeometry>
        </mxCell>
        <mxCell id="EESltQTYkssKowQskmax-28" value="" style="html=1;points=[];perimeter=orthogonalPerimeter;fillColor=strokeColor;direction=north;" vertex="1" parent="1">
          <mxGeometry x="354" y="730" width="80" height="5" as="geometry" />
        </mxCell>
        <mxCell id="EESltQTYkssKowQskmax-30" style="edgeStyle=orthogonalEdgeStyle;rounded=0;orthogonalLoop=1;jettySize=auto;html=1;entryX=0.3;entryY=0.506;entryDx=0;entryDy=0;entryPerimeter=0;" edge="1" parent="1" source="EESltQTYkssKowQskmax-24" target="EESltQTYkssKowQskmax-28">
          <mxGeometry relative="1" as="geometry" />
        </mxCell>
        <mxCell id="EESltQTYkssKowQskmax-31" value="Удален из базы данных" style="ellipse;whiteSpace=wrap;html=1;" vertex="1" parent="1">
          <mxGeometry x="334" y="930" width="120" height="50" as="geometry" />
        </mxCell>
        <mxCell id="EESltQTYkssKowQskmax-32" value="Статус изменен на &quot;Доставляющийся&quot;" style="ellipse;whiteSpace=wrap;html=1;" vertex="1" parent="1">
          <mxGeometry x="230" y="790" width="120" height="50" as="geometry" />
        </mxCell>
        <mxCell id="EESltQTYkssKowQskmax-33" value="Собрано в заказ" style="ellipse;whiteSpace=wrap;html=1;" vertex="1" parent="1">
          <mxGeometry x="452" y="790" width="120" height="50" as="geometry" />
        </mxCell>
        <mxCell id="EESltQTYkssKowQskmax-36" style="edgeStyle=orthogonalEdgeStyle;rounded=0;orthogonalLoop=1;jettySize=auto;html=1;exitX=0.5;exitY=1;exitDx=0;exitDy=0;" edge="1" parent="1" source="EESltQTYkssKowQskmax-32" target="EESltQTYkssKowQskmax-32">
          <mxGeometry relative="1" as="geometry" />
        </mxCell>
        <mxCell id="EESltQTYkssKowQskmax-38" style="edgeStyle=orthogonalEdgeStyle;rounded=0;orthogonalLoop=1;jettySize=auto;html=1;entryX=0.5;entryY=0;entryDx=0;entryDy=0;" edge="1" parent="1" source="EESltQTYkssKowQskmax-37" target="EESltQTYkssKowQskmax-31">
          <mxGeometry relative="1" as="geometry" />
        </mxCell>
        <mxCell id="EESltQTYkssKowQskmax-37" value="" style="html=1;points=[];perimeter=orthogonalPerimeter;fillColor=strokeColor;direction=north;" vertex="1" parent="1">
          <mxGeometry x="354" y="870" width="80" height="5" as="geometry" />
        </mxCell>
        <mxCell id="EESltQTYkssKowQskmax-39" style="edgeStyle=orthogonalEdgeStyle;rounded=0;orthogonalLoop=1;jettySize=auto;html=1;entryX=0.933;entryY=0.221;entryDx=0;entryDy=0;entryPerimeter=0;" edge="1" parent="1" source="EESltQTYkssKowQskmax-32" target="EESltQTYkssKowQskmax-37">
          <mxGeometry relative="1" as="geometry" />
        </mxCell>
        <mxCell id="EESltQTYkssKowQskmax-40" style="edgeStyle=orthogonalEdgeStyle;rounded=0;orthogonalLoop=1;jettySize=auto;html=1;entryX=0.933;entryY=0.794;entryDx=0;entryDy=0;entryPerimeter=0;" edge="1" parent="1" source="EESltQTYkssKowQskmax-33" target="EESltQTYkssKowQskmax-37">
          <mxGeometry relative="1" as="geometry" />
        </mxCell>
      </root>
    </mxGraphModel>
  </diagram>
</mxfile>
